:SAMPLES-PER-SECOND 30
:FULLY-SPECIFIED
:DEGREES
654
root  -48.287 34.141 8.73591 -174.583 -2.18693 177.448
RightUpLeg  -49.6615 6.57147 -11.3265
RightLeg  56.3798 7.50875 11.5684
RightFoot  -13.3491 -0.0407733 2.79436
RightToes  5.82063e-011 0 -3.6325e-017
Spine  52.3571 -4.6643 5.77681
Spine1  -0.380066 -5.31622 17.0472
HEad  -67.6018 53.8036 -59.7824
LeftShoulder1  1.71437 -7.45035 -8.15035
LeftArm  43.6423 -45.287 -84.9953
LeftForeArm  5.97498 -55.2464 -15.868
LeftHand  -0.104613 3.08307 4.60353
RightShoulder  0.38025 -2.16372 22.6088
RightArm  -24.334 -1.11018 37.5393
RightForeArm  32.1181 77.5906 70.1123
RightHand  -2.9223 15.2361 -16.7032
LeftUpLeg  -35.7961 28.495 18.4292
LeftLeg  42.361 1.03138 1.40154
LeftFoot  -0.428635 1.14963 -12.3274
LeftToes  -1.20963e-009 8.6283e-011 2.04439e-011
655
root  -49.2568 33.9802 8.82858 -174.842 -1.93468 178.878
RightUpLeg  -49.3727 6.90467 -11.8058
RightLeg  56.0134 7.6555 11.6326
RightFoot  -14.0808 0.0183418 4.78637
RightToes  5.82063e-011 0 -3.6325e-017
Spine  53.1346 -4.87308 6.21019
Spine1  -0.130924 -5.40213 17.5927
HEad  -68.3391 53.6893 -59.4542
LeftShoulder1  1.69438 -7.60727 -7.69936
LeftArm  44.6699 -44.9021 -86.3475
LeftForeArm  6.04536 -55.4059 -15.9646
LeftHand  -0.110027 2.66863 4.19674
RightShoulder  0.34121 -2.31905 23.1248
RightArm  -24.7822 -2.13622 36.5765
RightForeArm  32.8945 77.6937 72.221
RightHand  -3.02084 16.0076 -16.6404
LeftUpLeg  -37.6127 29.267 18.7529
LeftLeg  46.8901 0.523198 1.02596
LeftFoot  -5.17354 0.784276 -13.7385
LeftToes  -1.20963e-009 8.6283e-011 2.04439e-011
656
root  -50.2005 33.9667 8.92459 -175.103 -2.51356 -179.966
RightUpLeg  -48.3244 7.04586 -12.6274
RightLeg  54.7645 7.65464 11.0974
RightFoot  -14.5229 0.0895597 6.76874
RightToes  5.82063e-011 0 -3.6325e-017
Spine  53.8218 -5.4126 6.78582
Spine1  -0.51279 -5.50962 17.6056
HEad  -69.0894 53.861 -59.1609
LeftShoulder1  1.69854 -7.72691 -7.56066
LeftArm  45.4296 -45.1691 -86.7371
LeftForeArm  5.7322 -55.2248 -15.8766
LeftHand  -0.0980156 3.11734 4.30399
RightShoulder  0.407892 -2.08388 22.9251
RightArm  -25.9982 -2.97428 35.3789
RightForeArm  33.1488 77.7537 73.9458
RightHand  -3.3701 17.0182 -17.6956
LeftUpLeg  -39.8007 29.8347 17.7324
LeftLeg  49.8598 0.0771627 0.552487
LeftFoot  -5.74043 0.504402 -9.59532
LeftToes  -1.20963e-009 8.6283e-011 2.04439e-011
657
root  -51.1524 33.9338 8.9876 -175.406 -3.50059 -179.474
RightUpLeg  -47.1389 7.25697 -14.2783
RightLeg  53.7619 7.36353 10.283
RightFoot  -15.1813 0.197765 8.93016
RightToes  5.82063e-011 0 -3.6325e-017
Spine  53.7472 -5.42629 6.95965
Spine1  -0.714255 -5.45528 18.1991
HEad  -69.9016 53.6829 -59.3417
LeftShoulder1  1.64553 -7.85024 -6.84994
LeftArm  45.3586 -45.7592 -87.3761
LeftForeArm  5.21701 -54.5271 -15.4855
LeftHand  -0.0949329 3.31489 4.50082
RightShoulder  0.356011 -2.24752 22.6083
RightArm  -27.6876 -2.73508 33.9731
RightForeArm  32.4761 77.7192 73.4879
RightHand  -3.39794 16.9483 -17.887
LeftUpLeg  -41.4477 29.7211 16.2104
LeftLeg  52.2633 -0.186411 0.216357
LeftFoot  -7.08743 0.333698 -7.84708
LeftToes  -1.20963e-009 8.6283e-011 2.04439e-011
658
root  -52.1331 33.9412 9.00954 -175.899 -5.46601 -179.715
RightUpLeg  -45.204 7.47576 -16.8545
RightLeg  52.7052 6.64133 8.90784
RightFoot  -16.017 0.344558 11.1052
RightToes  5.82063e-011 0 -3.6325e-017
Spine  53.3267 -5.41702 6.77885
Spine1  -1.65509 -5.59228 19.4557
HEad  -70.3739 53.0023 -58.4366
LeftShoulder1  1.58478 -7.89239 -6.19006
LeftArm  44.0188 -46.3279 -87.0967
LeftForeArm  3.761 -53.4565 -14.9679
LeftHand  -0.0759012 3.84228 4.39532
RightShoulder  0.398672 -2.05791 21.6601
RightArm  -29.3501 -2.37481 32.5696
RightForeArm  28.4943 77.4114 69.0086
RightHand  -3.37693 16.6975 -17.9859
LeftUpLeg  -42.5233 28.4147 13.9374
LeftLeg  53.8411 -0.599838 -0.389074
LeftFoot  -7.98074 0.228283 -6.19921
LeftToes  -1.20963e-009 8.6283e-011 2.04439e-011
659
root  -53.0882 34.0315 8.97627 -176.433 -9.08423 179.572
RightUpLeg  -42.1702 7.39605 -19.8247
RightLeg  51.5629 5.25296 6.70575
RightFoot  -16.7526 0.484171 12.5877
RightToes  5.82063e-011 0 -3.6325e-017
Spine  52.0931 -5.792 7.17676
Spine1  -2.88089 -5.77003 20.3949
HEad  -71.0521 52.1233 -56.5406
LeftShoulder1  1.41847 -8.04225 -4.35332
LeftArm  41.799 -46.8001 -86.365
LeftForeArm  2.26894 -52.3399 -14.4563
LeftHand  -0.0689739 4.06069 4.44045
RightShoulder  0.423321 -1.94116 21.102
RightArm  -31.5464 -0.899829 30.9318
RightForeArm  20.0671 76.4487 59.7787
RightHand  -3.29234 18.0432 -16.5548
LeftUpLeg  -43.5493 26.2814 10.7641
LeftLeg  54.6474 -1.13921 -1.22186
LeftFoot  -8.01823 0.15485 -3.64281
LeftToes  -1.20963e-009 8.6283e-011 2.04439e-011
660
root  -53.9276 34.1977 8.89788 -176.382 -14.3643 176.704
RightUpLeg  -38.1206 7.12923 -24.8111
RightLeg  50.629 3.19699 3.81071
RightFoot  -17.6816 0.685861 14.4962
RightToes  5.82063e-011 0 -3.6325e-017
Spine  48.9958 -5.38185 6.1353
Spine1  -3.48688 -6.13587 21.7253
HEad  -69.7033 49.1466 -52.0376
LeftShoulder1  1.17222 -8.68666 -1.41085
LeftArm  38.7785 -47.9847 -84.9334
LeftForeArm  1.1438 -51.2703 -13.9719
LeftHand  -0.0710591 4.20289 5.17058
RightShoulder  0.446084 -1.86022 21.2067
RightArm  -35.5646 1.77774 30.1741
RightForeArm  7.72929 74.3309 48.2494
RightHand  -3.91594 19.3513 -18.5633
LeftUpLeg  -43.7316 22.9813 5.31024
LeftLeg  54.0013 -1.83531 -2.21465
LeftFoot  -8.11673 0.093425 -1.6243
LeftToes  -1.20963e-009 8.6283e-011 2.04439e-011
661
root  -54.6425 34.4844 8.79712 -175.677 -21.4448 171.868
RightUpLeg  -32.0565 5.50569 -30.871
RightLeg  49.3847 1.22565 1.19165
RightFoot  -18.0607 0.814575 15.8989
RightToes  5.82063e-011 0 -3.6325e-017
Spine  44.4314 -4.62033 4.74123
Spine1  -3.54063 -6.25357 21.7955
HEad  -67.0023 44.0202 -45.5982
LeftShoulder1  0.764465 -9.67563 3.06405
LeftArm  36.2659 -50.2085 -83.4586
LeftForeArm  0.706097 -50.3729 -13.536
LeftHand  -0.0797547 3.92937 4.9492
RightShoulder  0.286941 -2.49571 22.8566
RightArm  -42.6115 6.53812 31.5965
RightForeArm  -1.83144 71.4031 38.4198
RightHand  -4.41307 19.9364 -20.3672
LeftUpLeg  -42.0638 17.7809 -1.48124
LeftLeg  51.4425 -2.76613 -3.2419
LeftFoot  -7.13634 0.0202094 0.592497
LeftToes  -1.20963e-009 8.6283e-011 2.04439e-011
662
root  -55.2282 35.0305 8.61209 -176.258 -30.4776 167.824
RightUpLeg  -21.6015 4.40087 -34.5109
RightLeg  46.3773 -1.8056 -2.32226
RightFoot  -17.3509 0.760463 16.6437
RightToes  5.82063e-011 0 -3.6325e-017
Spine  40.5369 -3.48243 4.67857
Spine1  -2.44328 -6.13545 23.8714
HEad  -66.6117 37.056 -41.0473
LeftShoulder1  0.420126 -8.5885 5.67522
LeftArm  34.7205 -55.8573 -79.0677
LeftForeArm  1.26949 -51.437 -14.091
LeftHand  -0.113396 3.29678 5.49642
RightShoulder  0.172803 -2.88636 22.9223
RightArm  -51.0053 14.0074 35.2082
RightForeArm  -10.4706 68.6234 32.7374
RightHand  -5.03608 22.4477 -21.0945
LeftUpLeg  -36.709 11.9357 -6.19334
LeftLeg  47.1595 -4.64595 -4.89496
LeftFoot  -5.34663 -0.118227 2.84547
LeftToes  -1.20963e-009 8.6283e-011 2.04439e-011
663
root  -55.8103 35.8944 8.34473 -177.688 -40.5667 164.997
RightUpLeg  -8.12973 2.93856 -35.4485
RightLeg  40.8082 -5.99017 -5.75497
RightFoot  -14.4754 0.330102 15.6022
RightToes  5.82063e-011 0 -3.6325e-017
Spine  37.1369 -3.34154 7.51175
Spine1  -1.14133 -5.60525 23.5781
HEad  -66.3112 28.8252 -36.708
LeftShoulder1  0.201347 -6.75049 7.40798
LeftArm  27.0624 -63.1176 -66.9393
LeftForeArm  7.6455 -55.2933 -15.6799
LeftHand  -0.144988 2.24983 5.15547
RightShoulder  0.348821 -2.19884 20.5579
RightArm  -55.5737 23.4567 39.1232
RightForeArm  -23.6125 64.6713 27.2665
RightHand  -7.15349 31.1259 -22.6149
LeftUpLeg  -28.6115 7.01143 -9.26317
LeftLeg  41.1127 -8.09388 -7.08761
LeftFoot  -2.76569 -0.343152 4.78138
LeftToes  -1.20963e-009 8.6283e-011 2.04439e-011
664
root  -56.3683 36.8784 8.06313 -178.232 -48.5137 163.737
RightUpLeg  2.52664 1.91995 -34.2696
RightLeg  34.2673 -11.3081 -8.42147
RightFoot  -9.14895 -0.290795 13.0146
RightToes  5.82063e-011 0 -3.6325e-017
Spine  33.732 -2.96693 12.7857
Spine1  -1.09525 -3.07748 19.5913
HEad  -64.9539 20.9939 -30.8219
LeftShoulder1  0.0384866 -4.32282 9.09931
LeftArm  6.41892 -70.7992 -41.9933
LeftForeArm  9.0106 -53.6443 -14.7544
LeftHand  -0.129245 0.945438 3.33383
RightShoulder  0.589493 -0.888714 16.4484
RightArm  -53.672 34.7411 40.6125
RightForeArm  -33.771 58.2699 21.0834
RightHand  -6.2419 27.3754 -22.0793
LeftUpLeg  -21.5192 4.51783 -10.7483
LeftLeg  34.3087 -12.7554 -8.8616
LeftFoot  0.33171 -0.565441 5.54909
LeftToes  -1.20963e-009 8.6283e-011 2.04439e-011
665
root  -56.8558 37.8653 7.75299 -176.682 -53.1132 164.732
RightUpLeg  6.52977 -0.210854 -31.5766
RightLeg  28.6458 -15.9413 -9.42588
RightFoot  -2.43194 -0.707895 8.78881
RightToes  5.82063e-011 0 -3.6325e-017
Spine  30.7451 -1.70108 19.3916
Spine1  -4.26601 1.46167 12.2537
HEad  -60.3401 20.1289 -27.0527
LeftShoulder1  -0.112159 -2.80354 11.6864
LeftArm  -21.9486 -71.0024 -11.1712
LeftForeArm  2.97221 -40.7751 -9.69544
LeftHand  -0.17919 2.55807 2.01708
RightShoulder  0.858222 1.76366 8.97455
RightArm  -49.6076 47.6186 38.3818
RightForeArm  -37.6071 46.1046 14.023
RightHand  -4.48778 21.338 -19.7159
LeftUpLeg  -18.5946 2.84838 -10.375
LeftLeg  27.0293 -16.4466 -8.62774
LeftFoot  3.39102 -0.609889 4.56675
LeftToes  -1.20963e-009 8.6283e-011 2.04439e-011
